<?xml version="1.0" standalone="no"?>
<!DOCTYPE svg PUBLIC "-//W3C//DTD SVG 20010904//EN"
 "http://www.w3.org/TR/2001/REC-SVG-20010904/DTD/svg10.dtd">
<svg version="1.0" xmlns="http://www.w3.org/2000/svg"
 width="1280.000000pt" height="1280.000000pt" viewBox="0 0 1280.000000 1280.000000"
 preserveAspectRatio="xMidYMid meet">
<metadata>
Created by potrace 1.14, written by Peter Selinger 2001-2017
</metadata>
<g transform="translate(0.000000,1280.000000) scale(0.100000,-0.100000)"
fill="#000000" stroke="none">
<path d="M0 6400 l0 -6400 6400 0 6400 0 0 6400 0 6400 -6400 0 -6400 0 0
-6400z m8040 2430 c30 -6 129 -15 220 -20 253 -14 381 -28 545 -61 496 -99
750 -287 748 -555 -1 -78 -25 -153 -95 -291 -76 -148 -294 -271 -535 -303
-125 -17 -323 -7 -498 25 -317 58 -383 66 -565 72 -152 5 -187 3 -196 -8 -21
-27 -44 -112 -50 -188 -14 -162 32 -306 127 -399 73 -73 254 -161 469 -231
448 -145 545 -178 665 -228 374 -154 607 -347 739 -610 153 -306 175 -737 55
-1096 -63 -191 -154 -339 -301 -493 -114 -118 -226 -201 -376 -277 -272 -139
-547 -198 -942 -201 -118 -2 -269 -8 -335 -15 -247 -27 -665 17 -960 100 -195
54 -328 114 -492 219 -20 13 -26 13 -50 -3 -63 -41 -274 -138 -363 -166 -280
-89 -306 -91 -1496 -91 l-1011 0 -64 32 c-80 40 -175 134 -212 210 l-27 57 0
2058 0 2058 28 55 c38 76 132 167 216 210 l70 35 1010 3 c718 2 1043 0 1121
-8 319 -34 607 -157 817 -349 l57 -52 38 42 c21 23 39 45 41 49 5 13 154 135
217 177 177 119 411 203 680 244 101 15 162 18 385 14 146 -3 290 -9 320 -15z"/>
<path d="M4580 7376 l0 -486 73 6 c39 3 94 10 121 15 153 30 287 148 346 307
30 79 37 224 16 316 -35 147 -110 241 -234 292 -58 23 -85 28 -194 32 l-128 4
0 -486z"/>
<path d="M6255 6598 c-38 -27 -100 -66 -137 -86 -38 -20 -68 -39 -68 -42 0 -3
57 -34 126 -68 512 -259 734 -688 639 -1232 -7 -41 -16 -87 -20 -102 l-7 -28
151 0 c187 0 242 -11 516 -100 116 -38 246 -76 291 -86 80 -16 82 -16 147 5
114 38 220 120 279 216 89 144 103 410 31 564 -31 65 -100 143 -158 176 -69
41 -365 154 -575 221 -227 71 -416 136 -498 170 -237 98 -420 213 -556 349
l-91 92 -70 -49z"/>
<path d="M4580 5441 l0 -561 103 0 c182 0 319 48 433 153 103 95 154 222 154
385 0 116 -15 185 -60 279 -94 194 -254 289 -507 300 l-123 6 0 -562z"/>
</g>
</svg>
